<?xml version="1.0" encoding="UTF-8"?>
<svg id="a" data-name="Layer 1" xmlns="http://www.w3.org/2000/svg" xmlns:xlink="http://www.w3.org/1999/xlink" viewBox="0 0 566.93 283.46">
  <defs>
    <clipPath id="b">
      <rect x="53.9" y="89.27" width="459.13" height="104.91" style="fill: none;"/>
    </clipPath>
  </defs>
  <rect x="493.21" y="89.27" width="19.82" height="19.82" style="fill: #4038ff;"/>
  <g style="clip-path: url(#b);">
    <path d="M124.89,194.18l-36.65-47.55,36.24-37.53h-11.72l-48.62,48.1h-1.98v-48.1h-8.25v85.09h8.25v-24.76l20.14-17.5,32.52,42.27h10.07ZM145.91,96.56h68.85v-7.26h-68.85v7.26ZM212.28,151.88c0,20.14-12.55,34.67-32.03,34.67s-32.03-13.7-32.03-34.67c0-19.64,12.38-34.67,32.03-34.67s32.03,14.2,32.03,34.67M220.54,151.88c0-24.6-15.85-42.26-40.28-42.26s-40.28,17.66-40.28,42.26,15.85,42.27,40.28,42.27,40.28-17.67,40.28-42.27M304.24,133.73l6.44-4.62c-8.58-12.05-21.46-19.48-38.3-19.48s-29.55,8.09-29.55,21.96,10.24,19.48,27.24,22.45l9.58,1.65c12.88,2.15,22.45,5.94,22.45,15.52s-9.41,15.68-22.95,15.68-26.91-4.95-34.01-21.46l-7.43,3.3c8.42,18.49,24.44,25.43,41.61,25.43s31.04-8.59,31.04-23.44-12.88-19.81-28.89-22.62l-9.58-1.65c-12.05-2.15-20.8-5.61-20.8-15.19s9.74-14.36,21.3-14.36,23.77,4.62,31.86,16.84M334.7,146.44c1.98-18.16,14.53-29.22,31.37-29.22s28.89,10.07,29.55,29.22h-60.92ZM334.7,153.7h69.51v-5.28c0-24.44-16.01-38.8-38.14-38.8s-39.95,18-39.95,41.6,16.18,42.93,41.11,42.93c21.3,0,30.38-11.72,35.83-22.95l-7.93-3.14c-4.62,10.4-12.38,18.49-27.9,18.49-18.66,0-31.37-12.38-32.52-32.86M492.89,191.84v-48.87c0-22.29-15.19-32.69-32.03-32.69s-25.26,8.42-29.72,16.84h-2.31v-15.19h-7.93v79.91h8.26v-39.96c0-22.78,13.04-34.01,30.05-34.01,15.36,0,25.43,7.59,25.43,25.75v48.21h8.25Z" style="fill: #c6c6c8;"/>
  </g>
</svg>